# xmcd CD database file
#
# Track frame offsets:
#	150
#	16232
#	36017
#	58287
#	84377
#	107420
#	141035
#	165772
#	188158
#	204268
#	233572
#	256212
#	277345
#	317826
#
# Disc length: 4536 seconds
#
# Revision: 0
# Processed by: cddbd v1.5.2PL0 Copyright (c) Steve Scherf et al.
# Submitted via: CDex 1.51
#
DISCID=b211b60e
DTITLE=Various Artist - L'Aperitivo Italiano
DYEAR=2006
DGENRE=Jazz
TTITLE0=Ohm Guru-Please,please,please,let me get what I want
TTITLE1=Riovolt-It ain't over till it's over
TTITLE2=Melania-Resta cu'mme
TTITLE3=Le Berry-Message in the bottle
TTITLE4=Capiozzo and Mecco-Spinning wheel
TTITLE5=Marcheselli Produzioni-Libertango
TTITLE6=Arcoiris-Walk on the wild side
TTITLE7=Black Mighty Wax-Psycho killer
TTITLE8=Pinku Vaaty-A long walk
TTITLE9=Clan Greco-Rotation(Eric Kupper Remix)
TTITLE10=Massimo Tagliata-Cera una volta in America
TTITLE11=Maru a Rodriguez-Redemption song
TTITLE12=I Dep-Tem que valer
TTITLE13=Space Cowboy-Space cowboy
EXTD=YEAR: 2006
EXTT0=
EXTT1=
EXTT2=
EXTT3=
EXTT4=
EXTT5=
EXTT6=
EXTT7=
EXTT8=
EXTT9=
EXTT10=
EXTT11=
EXTT12=
EXTT13=
PLAYORDER=
